<?xml version="1.0" encoding="UTF-8"?> <svg xmlns="http://www.w3.org/2000/svg" xmlns:xlink="http://www.w3.org/1999/xlink" width="1080" zoomAndPan="magnify" viewBox="0 0 810 1439.999935" height="1920" preserveAspectRatio="xMidYMid meet" version="1.0"><defs><clipPath id="a2e545cef5"><path d="M 132.957031 718 L 201 718 L 201 723 L 132.957031 723 Z M 132.957031 718 " clip-rule="nonzero"></path></clipPath><clipPath id="4c25f8d0cb"><path d="M 402 384.519531 L 407 384.519531 L 407 584 L 402 584 Z M 402 384.519531 " clip-rule="nonzero"></path></clipPath><clipPath id="db3eb49e26"><path d="M 402 856 L 407 856 L 407 1055.632812 L 402 1055.632812 Z M 402 856 " clip-rule="nonzero"></path></clipPath><clipPath id="f79a9c61e0"><path d="M 609 718 L 676.707031 718 L 676.707031 722.5 L 609 722.5 Z M 609 718 " clip-rule="nonzero"></path></clipPath></defs><path fill="#e9c261" d="M 395.269531 704.867188 L 395.285156 704.898438 L 395.269531 704.867188 " fill-opacity="1" fill-rule="nonzero"></path><path fill="#e9c261" d="M 376.367188 854.097656 L 348.789062 975.070312 C 348.574219 976.019531 347.753906 976.648438 346.824219 976.648438 C 346.675781 976.648438 346.53125 976.632812 346.382812 976.597656 C 345.296875 976.355469 344.605469 975.261719 344.863281 974.183594 L 372.414062 853.371094 C 373.730469 853.628906 375.050781 853.878906 376.367188 854.097656 " fill-opacity="1" fill-rule="nonzero"></path><path fill="#e9c261" d="M 348.789062 465.21875 L 376.378906 586.21875 C 375.058594 586.433594 373.742188 586.691406 372.429688 586.945312 L 344.863281 466.105469 C 344.605469 465.027344 345.296875 463.933594 346.382812 463.691406 C 347.460938 463.449219 348.546875 464.125 348.789062 465.21875 " fill-opacity="1" fill-rule="nonzero"></path><path fill="#e9c261" d="M 307.832031 513.804688 L 346.460938 594.105469 C 345.183594 594.554688 343.917969 595.011719 342.660156 595.492188 L 304.203125 515.554688 C 303.71875 514.546875 304.132812 513.347656 305.140625 512.863281 C 306.148438 512.378906 307.347656 512.792969 307.832031 513.804688 " fill-opacity="1" fill-rule="nonzero"></path><path fill="#e9c261" d="M 346.449219 846.226562 L 307.832031 926.484375 C 307.484375 927.210938 306.769531 927.625 306.019531 927.625 C 305.71875 927.625 305.425781 927.5625 305.140625 927.425781 C 304.132812 926.941406 303.71875 925.742188 304.203125 924.734375 L 342.644531 844.835938 C 343.917969 845.304688 345.183594 845.777344 346.449219 846.226562 " fill-opacity="1" fill-rule="nonzero"></path><path fill="#e9c261" d="M 304.683594 718.125 L 304.683594 722.164062 L 304.710938 722.164062 C 304.832031 728.4375 305.535156 734.570312 306.742188 740.496094 L 306.8125 740.765625 C 307.054688 742 307.335938 743.214844 307.648438 744.425781 C 309.136719 750.472656 311.183594 756.285156 313.722656 761.84375 C 314.273438 763.070312 314.851562 764.277344 315.46875 765.476562 C 318.265625 770.996094 321.550781 776.234375 325.285156 781.09375 C 326.09375 782.164062 326.9375 783.214844 327.800781 784.242188 C 331.722656 788.980469 336.09375 793.355469 340.832031 797.28125 C 341.851562 798.144531 342.898438 798.988281 343.976562 799.800781 L 343.988281 799.800781 C 348.839844 803.542969 354.0625 806.839844 359.570312 809.625 C 360.769531 810.246094 361.976562 810.824219 363.199219 811.378906 C 368.757812 813.921875 374.566406 815.96875 380.601562 817.460938 C 381.808594 817.769531 383.023438 818.050781 384.257812 818.296875 L 384.53125 818.359375 C 390.445312 819.574219 396.574219 820.273438 402.839844 820.394531 L 402.839844 820.421875 L 406.875 820.421875 L 406.875 820.394531 C 413.140625 820.273438 419.273438 819.574219 425.1875 818.359375 L 425.457031 818.296875 C 426.695312 818.050781 427.902344 817.769531 429.117188 817.460938 C 435.152344 815.96875 440.960938 813.921875 446.511719 811.378906 C 447.734375 810.824219 448.949219 810.246094 450.140625 809.636719 C 455.65625 806.824219 460.886719 803.542969 465.742188 799.800781 C 466.816406 798.988281 467.863281 798.144531 468.886719 797.28125 C 473.617188 793.355469 477.976562 788.988281 481.917969 784.253906 L 481.917969 784.242188 C 482.777344 783.214844 483.625 782.164062 484.429688 781.09375 C 488.167969 776.234375 491.449219 770.996094 494.246094 765.476562 C 494.863281 764.277344 495.441406 763.070312 495.992188 761.84375 C 498.535156 756.285156 500.578125 750.472656 502.070312 744.425781 C 502.378906 743.214844 502.664062 742 502.90625 740.765625 L 502.972656 740.496094 C 504.183594 734.570312 504.878906 728.4375 505 722.164062 L 505.027344 722.164062 L 505.027344 718.125 L 505 718.125 C 504.878906 711.851562 504.183594 705.71875 502.972656 699.792969 L 502.90625 699.523438 C 502.664062 698.296875 502.378906 697.074219 502.070312 695.875 L 502.070312 695.863281 C 500.578125 689.816406 498.535156 684.003906 495.992188 678.445312 C 495.441406 677.21875 494.863281 676.011719 494.246094 674.8125 C 491.449219 669.292969 488.167969 664.054688 484.429688 659.195312 C 483.625 658.125 482.777344 657.074219 481.917969 656.046875 C 477.988281 651.308594 473.617188 646.9375 468.886719 643.007812 C 467.863281 642.144531 466.816406 641.300781 465.742188 640.488281 C 460.886719 636.746094 455.65625 633.464844 450.140625 630.652344 C 448.949219 630.042969 447.734375 629.464844 446.511719 628.914062 C 440.960938 626.367188 435.152344 624.320312 429.117188 622.828125 C 427.902344 622.519531 426.695312 622.238281 425.457031 621.992188 L 425.1875 621.929688 C 419.273438 620.714844 413.140625 620.015625 406.875 619.894531 L 406.875 619.867188 L 402.839844 619.867188 L 402.839844 619.894531 C 396.574219 620.015625 390.445312 620.714844 384.53125 621.929688 L 384.257812 621.992188 C 383.023438 622.238281 381.808594 622.519531 380.601562 622.828125 C 374.566406 624.320312 368.757812 626.367188 363.199219 628.914062 C 361.976562 629.464844 360.769531 630.042969 359.570312 630.652344 C 354.0625 633.449219 348.839844 636.746094 343.988281 640.472656 C 343.976562 640.472656 343.976562 640.472656 343.976562 640.488281 C 342.898438 641.300781 341.851562 642.144531 340.832031 643.007812 C 336.09375 646.9375 331.722656 651.308594 327.800781 656.046875 C 326.9375 657.074219 326.09375 658.125 325.285156 659.195312 C 321.550781 664.054688 318.265625 669.292969 315.46875 674.8125 C 314.851562 676.011719 314.273438 677.21875 313.722656 678.445312 C 311.183594 684.003906 309.136719 689.816406 307.648438 695.863281 C 307.335938 697.074219 307.054688 698.289062 306.8125 699.523438 L 306.742188 699.792969 C 305.535156 705.71875 304.832031 711.851562 304.710938 718.125 Z M 499.046875 739.59375 C 500.199219 733.914062 500.863281 728.082031 500.96875 722.164062 L 481.054688 722.164062 C 480.503906 723.132812 479.566406 723.847656 478.410156 724.089844 C 476.632812 724.464844 474.867188 724.828125 473.109375 725.191406 C 469.277344 725.96875 465.308594 726.796875 461.476562 727.652344 C 459.003906 728.21875 456.679688 728.800781 454.472656 729.402344 C 454.457031 729.402344 454.457031 729.417969 454.457031 729.417969 Z M 498.15625 743.527344 C 496.746094 749.230469 494.824219 754.761719 492.375 760.09375 L 439.574219 734.640625 C 439.722656 734.5625 439.855469 734.507812 440.003906 734.441406 C 442.140625 733.5 444.390625 732.621094 446.769531 731.785156 Z M 481.066406 718.125 L 500.96875 718.125 C 500.863281 712.207031 500.199219 706.375 499.046875 700.695312 L 454.457031 710.871094 L 454.472656 710.886719 C 458.265625 711.921875 461.9375 712.757812 465.324219 713.492188 C 467.972656 714.0625 470.644531 714.585938 473.308594 715.113281 C 474.644531 715.382812 475.988281 715.632812 477.332031 715.90625 C 477.652344 715.96875 477.960938 716.054688 478.300781 716.148438 L 478.609375 716.242188 C 479.683594 716.523438 480.558594 717.210938 481.066406 718.125 Z M 446.753906 708.503906 L 498.15625 696.761719 C 496.746094 691.058594 494.824219 685.527344 492.375 680.195312 L 439.535156 705.660156 C 440.195312 705.96875 440.882812 706.269531 441.5625 706.546875 C 443.289062 707.261719 445.019531 707.910156 446.753906 708.503906 Z M 481.28125 778.574219 C 484.875 773.90625 487.996094 768.9375 490.632812 763.742188 L 435.125 736.96875 L 435.109375 736.96875 C 433.996094 737.640625 432.917969 738.359375 431.882812 739.136719 Z M 435.136719 703.304688 L 490.632812 676.546875 C 487.996094 671.351562 484.875 666.382812 481.28125 661.714844 L 431.882812 701.152344 C 432.917969 701.921875 433.996094 702.648438 435.125 703.304688 Z M 478.773438 781.722656 L 478.773438 781.738281 C 476.902344 783.972656 474.9375 786.125 472.851562 788.210938 C 470.765625 790.296875 468.601562 792.277344 466.371094 794.132812 L 426.453125 744.007812 C 427.164062 743.226562 427.902344 742.472656 428.6875 741.757812 L 428.695312 741.757812 Z M 467.785156 722.164062 C 469.277344 721.851562 470.765625 721.542969 472.25 721.25 L 472.722656 721.136719 C 474.332031 720.816406 475.945312 720.480469 477.574219 720.144531 L 477.238281 720.050781 C 476.96875 719.972656 476.753906 719.914062 476.523438 719.859375 C 475.207031 719.609375 473.859375 719.335938 472.53125 719.082031 C 470.957031 718.773438 469.359375 718.445312 467.742188 718.125 C 466.65625 717.894531 465.566406 717.667969 464.476562 717.4375 C 459.019531 716.269531 452.820312 714.804688 446.511719 712.699219 L 446.511719 712.6875 C 444.363281 711.964844 442.195312 711.164062 440.03125 710.28125 C 439.910156 710.222656 439.789062 710.1875 439.683594 710.128906 L 437.195312 710.695312 L 439.667969 710.117188 C 438.03125 709.429688 436.453125 708.6875 434.960938 707.867188 C 433.539062 707.101562 432.167969 706.269531 430.859375 705.363281 C 430.09375 704.867188 429.34375 704.3125 428.628906 703.75 C 427.539062 702.914062 426.507812 702.027344 425.507812 701.070312 C 424.945312 700.558594 424.410156 700.023438 423.910156 699.472656 C 422.957031 698.488281 422.066406 697.453125 421.222656 696.359375 C 420.65625 695.648438 420.121094 694.90625 419.609375 694.140625 L 419.59375 694.140625 C 418.707031 692.835938 417.871094 691.464844 417.105469 690.035156 C 416.3125 688.582031 415.585938 687.0625 414.914062 685.46875 C 414.902344 685.433594 414.878906 685.378906 414.863281 685.339844 C 413.90625 683.078125 413.058594 680.789062 412.292969 678.488281 L 412.292969 678.472656 C 410.085938 671.929688 408.554688 665.375 407.304688 659.550781 C 407.15625 658.851562 407.007812 658.160156 406.875 657.476562 C 406.441406 655.390625 406.027344 653.304688 405.597656 651.121094 L 405.492188 650.609375 C 405.261719 649.429688 405.035156 648.238281 404.777344 647.019531 L 404.242188 649.738281 C 403.863281 651.671875 403.511719 653.476562 403.148438 655.296875 C 403.042969 655.796875 402.949219 656.304688 402.839844 656.804688 C 401.46875 663.519531 399.8125 670.988281 397.382812 678.28125 C 396.910156 679.671875 396.425781 681.042969 395.902344 682.40625 C 395.539062 683.328125 395.175781 684.234375 394.8125 685.105469 L 394.796875 685.121094 C 394.089844 686.804688 393.332031 688.394531 392.539062 689.886719 C 391.746094 691.351562 390.925781 692.726562 390.066406 694.035156 L 390.054688 694.035156 C 389.539062 694.8125 389.003906 695.554688 388.441406 696.28125 L 388.441406 696.296875 C 387.59375 697.398438 386.703125 698.445312 385.765625 699.429688 C 385.375 699.859375 384.972656 700.265625 384.554688 700.671875 C 384.433594 700.789062 384.296875 700.910156 384.164062 701.03125 C 384.164062 701.042969 384.164062 701.042969 384.152344 701.042969 C 383.167969 701.988281 382.136719 702.878906 381.03125 703.707031 C 380.308594 704.277344 379.566406 704.8125 378.785156 705.339844 C 377.496094 706.210938 376.125 707.039062 374.660156 707.832031 C 373.179688 708.625 371.621094 709.375 369.9375 710.101562 C 367.855469 711.007812 365.59375 711.851562 363.136719 712.671875 L 363.121094 712.671875 C 362.972656 712.726562 362.828125 712.785156 362.664062 712.835938 C 355.714844 715.113281 348.625 716.753906 341.824219 718.125 C 340.289062 718.445312 338.773438 718.746094 337.28125 719.03125 C 336.082031 719.273438 334.886719 719.515625 333.6875 719.753906 L 332.144531 720.066406 C 334.902344 720.722656 337.683594 721.300781 340.382812 721.851562 C 340.882812 721.964844 341.382812 722.058594 341.867188 722.164062 C 342.660156 722.328125 343.453125 722.5 344.230469 722.664062 C 350 723.898438 356.546875 725.421875 363.121094 727.617188 C 365.152344 728.300781 367.179688 729.039062 369.199219 729.859375 C 369.457031 729.972656 369.699219 730.066406 369.953125 730.1875 C 371.59375 730.871094 373.164062 731.628906 374.671875 732.457031 C 376.09375 733.226562 377.472656 734.0625 378.773438 734.964844 C 379.539062 735.476562 380.292969 736.027344 381.015625 736.589844 C 382.109375 737.441406 383.144531 738.332031 384.136719 739.273438 L 384.152344 739.273438 C 384.703125 739.796875 385.238281 740.335938 385.753906 740.886719 C 386.703125 741.878906 387.59375 742.921875 388.425781 743.992188 C 388.425781 744.007812 388.441406 744.007812 388.441406 744.007812 C 389.003906 744.75 389.554688 745.503906 390.054688 746.269531 C 390.96875 747.589844 391.789062 748.960938 392.539062 750.402344 C 393.082031 751.386719 393.5625 752.378906 394.035156 753.414062 C 394.304688 754.011719 394.554688 754.605469 394.796875 755.191406 C 395.753906 757.453125 396.601562 759.730469 397.367188 762.042969 C 399.691406 768.988281 401.320312 776.191406 402.839844 783.542969 C 402.933594 784 403.027344 784.441406 403.121094 784.898438 C 403.5 786.703125 403.847656 788.523438 404.226562 790.429688 L 404.777344 793.285156 L 405.597656 789.152344 C 406.027344 786.96875 406.441406 784.886719 406.875 782.828125 C 407.007812 782.128906 407.15625 781.441406 407.304688 780.757812 C 408.527344 774.96875 410.0625 768.398438 412.277344 761.765625 L 412.277344 761.75 C 412.949219 759.757812 413.691406 757.765625 414.5 755.769531 C 414.605469 755.503906 414.726562 755.21875 414.863281 754.949219 L 414.863281 754.941406 C 415.535156 753.3125 416.285156 751.75 417.105469 750.265625 L 417.105469 750.253906 C 417.871094 748.824219 418.707031 747.46875 419.609375 746.160156 C 420.121094 745.398438 420.65625 744.640625 421.222656 743.929688 C 422.066406 742.835938 422.957031 741.785156 423.894531 740.808594 C 424.421875 740.253906 424.945312 739.730469 425.480469 739.203125 C 426.480469 738.261719 427.515625 737.375 428.601562 736.527344 C 429.332031 735.960938 430.066406 735.421875 430.835938 734.910156 C 432.152344 734.007812 433.523438 733.171875 434.960938 732.421875 C 436.066406 731.816406 437.210938 731.265625 438.375 730.738281 C 438.808594 730.550781 439.253906 730.359375 439.695312 730.171875 C 441.859375 729.257812 444.121094 728.394531 446.511719 727.601562 L 446.527344 727.589844 C 450.71875 726.1875 455.335938 724.925781 460.578125 723.726562 C 462.972656 723.1875 465.378906 722.664062 467.785156 722.164062 Z M 428.710938 698.53125 L 478.773438 658.566406 L 478.773438 658.550781 C 476.902344 656.316406 474.9375 654.164062 472.851562 652.078125 C 470.765625 649.992188 468.601562 648.011719 466.371094 646.15625 L 426.453125 696.28125 C 427.164062 697.0625 427.917969 697.800781 428.695312 698.53125 C 428.695312 698.53125 428.695312 698.53125 428.710938 698.53125 Z M 423.828125 747.199219 L 463.226562 796.648438 C 458.5625 800.246094 453.597656 803.363281 448.40625 806.003906 L 421.664062 750.414062 C 422.335938 749.28125 423.050781 748.222656 423.828125 747.199219 Z M 423.816406 693.105469 L 463.226562 643.640625 C 458.5625 640.042969 453.597656 636.925781 448.40625 634.285156 L 421.664062 689.875 C 422.324219 691.007812 423.050781 692.066406 423.816406 693.105469 Z M 419.308594 685.445312 L 444.761719 632.535156 C 439.453125 630.101562 433.910156 628.160156 428.230469 626.761719 L 428.214844 626.746094 L 416.472656 678.257812 L 416.472656 678.273438 C 417.136719 680.171875 417.84375 682.050781 418.628906 683.910156 C 418.84375 684.433594 419.070312 684.949219 419.308594 685.445312 Z M 419.308594 754.847656 L 444.761719 807.753906 C 439.441406 810.203125 433.910156 812.128906 428.214844 813.542969 L 416.464844 762.007812 C 417.015625 760.429688 417.601562 758.859375 418.238281 757.296875 C 418.574219 756.460938 418.921875 755.640625 419.308594 754.847656 Z M 346.488281 796.648438 L 385.832031 747.265625 L 385.832031 747.28125 C 386.609375 748.316406 387.339844 749.402344 387.996094 750.550781 L 361.304688 806.003906 C 356.113281 803.363281 351.15625 800.246094 346.488281 796.648438 Z M 343.339844 794.132812 L 383.195312 744.105469 C 382.496094 743.308594 381.730469 742.542969 380.9375 741.828125 L 330.945312 781.722656 C 332.800781 783.957031 334.78125 786.125 336.859375 788.210938 C 338.945312 790.296875 341.109375 792.277344 343.339844 794.132812 Z M 385.429688 814.433594 C 391.101562 815.589844 396.925781 816.246094 402.839844 816.355469 L 402.839844 796.8125 C 401.820312 796.246094 401.0625 795.261719 400.824219 794.054688 L 400.269531 791.222656 C 399.898438 789.316406 399.546875 787.511719 399.183594 785.707031 C 398.082031 780.363281 396.953125 775.128906 395.554688 770 Z M 381.503906 813.542969 C 375.800781 812.128906 370.273438 810.203125 364.949219 807.753906 L 390.324219 755.019531 C 390.339844 755.035156 390.339844 755.0625 390.347656 755.070312 C 391.398438 757.417969 392.339844 759.824219 393.1875 762.257812 L 393.1875 762.273438 Z M 328.429688 778.574219 L 377.75 739.203125 C 376.714844 738.410156 375.628906 737.683594 374.496094 737.023438 L 319.085938 763.742188 C 321.722656 768.9375 324.84375 773.90625 328.429688 778.574219 Z M 317.335938 760.09375 L 370.101562 734.667969 C 369.320312 734.292969 368.515625 733.941406 367.679688 733.605469 C 366.09375 732.957031 364.492188 732.351562 362.878906 731.800781 L 311.554688 743.527344 C 312.96875 749.230469 314.890625 754.761719 317.335938 760.09375 Z M 310.671875 700.695312 L 355.164062 710.859375 C 348.867188 712.605469 342.546875 713.914062 336.523438 715.070312 C 335.300781 715.296875 334.09375 715.539062 332.882812 715.796875 L 331.351562 716.105469 C 330.152344 716.347656 329.160156 717.101562 328.609375 718.125 L 308.746094 718.125 C 308.855469 712.207031 309.511719 706.375 310.671875 700.695312 Z M 311.554688 696.761719 L 362.878906 708.488281 L 362.894531 708.488281 C 365.515625 707.574219 367.894531 706.632812 370.058594 705.605469 L 317.335938 680.195312 C 314.890625 685.527344 312.96875 691.058594 311.554688 696.761719 Z M 310.671875 739.59375 L 355.191406 729.429688 C 351.089844 728.300781 347.082031 727.382812 343.398438 726.605469 C 342.117188 726.339844 340.855469 726.082031 339.582031 725.8125 C 336.851562 725.246094 334.023438 724.667969 331.203125 723.992188 C 330.125 723.742188 329.222656 723.066406 328.6875 722.164062 L 308.746094 722.164062 C 308.855469 728.082031 309.511719 733.914062 310.671875 739.59375 Z M 346.488281 643.625 C 351.15625 640.042969 356.113281 636.925781 361.304688 634.285156 L 387.984375 689.738281 C 387.3125 690.894531 386.597656 691.984375 385.84375 693.023438 L 385.84375 693.035156 L 346.488281 643.640625 Z M 343.339844 646.15625 C 341.109375 648.011719 338.945312 649.992188 336.859375 652.078125 C 334.78125 654.164062 332.800781 656.332031 330.945312 658.566406 L 380.980469 698.503906 C 381.230469 698.257812 381.488281 698.015625 381.746094 697.773438 C 382.253906 697.277344 382.753906 696.761719 383.238281 696.238281 Z M 319.085938 676.546875 C 321.722656 671.351562 324.84375 666.382812 328.429688 661.714844 L 377.777344 701.113281 C 376.742188 701.867188 375.652344 702.578125 374.496094 703.265625 Z M 406.875 623.933594 C 412.792969 624.042969 418.613281 624.699219 424.289062 625.859375 L 414.09375 670.558594 C 412.964844 666.441406 412.050781 662.414062 411.242188 658.703125 C 410.664062 655.96875 410.113281 653.207031 409.550781 650.34375 C 409.292969 648.996094 409.011719 647.625 408.730469 646.222656 C 408.5 645.078125 407.820312 644.140625 406.875 643.570312 Z M 381.503906 626.746094 C 375.800781 628.160156 370.273438 630.085938 364.949219 632.535156 L 390.324219 685.269531 C 390.953125 683.910156 391.558594 682.484375 392.140625 680.964844 C 392.503906 680.007812 392.867188 679.039062 393.203125 678.066406 L 393.203125 678.054688 Z M 406.875 816.355469 C 412.792969 816.246094 418.613281 815.589844 424.289062 814.433594 L 414.09375 769.703125 C 412.949219 773.847656 412.035156 777.886719 411.242188 781.585938 C 410.664062 784.335938 410.128906 787.082031 409.550781 789.945312 L 408.730469 794.078125 C 408.542969 795.019531 408.027344 795.828125 407.328125 796.410156 C 407.183594 796.527344 407.035156 796.625 406.875 796.71875 Z M 385.429688 625.859375 L 395.566406 670.328125 C 397.0625 664.863281 398.191406 659.4375 399.183594 654.5 C 399.546875 652.699219 399.910156 650.878906 400.285156 648.953125 L 400.824219 646.222656 C 401.0625 645.027344 401.820312 644.042969 402.839844 643.476562 L 402.839844 623.933594 C 396.925781 624.042969 391.101562 624.699219 385.429688 625.859375 " fill-opacity="1" fill-rule="evenodd"></path><path fill="#e9c261" d="M 243.980469 589.144531 L 288.253906 624.484375 C 287.109375 625.269531 285.972656 626.074219 284.824219 626.894531 L 284.816406 626.894531 L 241.464844 592.292969 C 240.601562 591.601562 240.453125 590.324219 241.152344 589.449219 C 241.839844 588.589844 243.117188 588.4375 243.980469 589.144531 " fill-opacity="1" fill-rule="nonzero"></path><path fill="#e9c261" d="M 317.214844 606.882812 L 317.214844 606.894531 C 316.007812 607.511719 314.796875 608.144531 313.585938 608.804688 L 271.3125 555.734375 C 270.613281 554.871094 270.761719 553.59375 271.636719 552.90625 C 272.5 552.207031 273.773438 552.355469 274.457031 553.214844 L 317.214844 606.882812 " fill-opacity="1" fill-rule="nonzero"></path><path fill="#e9c261" d="M 317.207031 833.40625 L 274.457031 887.074219 C 274.070312 887.574219 273.480469 887.824219 272.886719 887.824219 C 272.441406 887.824219 272 887.675781 271.636719 887.382812 C 270.761719 886.695312 270.613281 885.417969 271.3125 884.542969 L 313.585938 831.484375 C 314.785156 832.144531 315.992188 832.792969 317.207031 833.40625 " fill-opacity="1" fill-rule="nonzero"></path><path fill="#e9c261" d="M 288.238281 815.816406 L 243.980469 851.148438 C 243.617188 851.445312 243.171875 851.59375 242.730469 851.59375 C 242.136719 851.59375 241.546875 851.335938 241.152344 850.839844 C 240.453125 849.964844 240.601562 848.6875 241.464844 847.996094 L 284.816406 813.394531 C 285.953125 814.214844 287.101562 815.019531 288.238281 815.816406 " fill-opacity="1" fill-rule="nonzero"></path><path fill="#e9c261" d="M 213.132812 625.484375 L 258.890625 647.539062 C 257.785156 648.488281 256.699219 649.4375 255.605469 650.4375 L 211.386719 629.117188 C 210.378906 628.632812 209.960938 627.433594 210.441406 626.425781 C 210.925781 625.414062 212.125 624.996094 213.132812 625.484375 " fill-opacity="1" fill-rule="nonzero"></path><path fill="#e9c261" d="M 258.878906 792.757812 L 213.132812 814.804688 C 212.855469 814.941406 212.554688 815.011719 212.261719 815.011719 C 211.507812 815.011719 210.792969 814.59375 210.441406 813.863281 C 209.960938 812.855469 210.378906 811.65625 211.386719 811.171875 L 255.597656 789.867188 C 256.683594 790.851562 257.777344 791.800781 258.878906 792.757812 " fill-opacity="1" fill-rule="nonzero"></path><path fill="#e9c261" d="M 228.015625 762.613281 L 178.550781 773.914062 C 178.402344 773.957031 178.257812 773.96875 178.109375 773.96875 C 177.179688 773.96875 176.359375 773.335938 176.144531 772.394531 C 175.886719 771.316406 176.578125 770.230469 177.664062 769.988281 L 224.914062 759.195312 C 225.921875 760.335938 226.957031 761.480469 228.015625 762.613281 " fill-opacity="1" fill-rule="nonzero"></path><path fill="#e9c261" d="M 220.800781 718.125 C 220.003906 719.59375 220.019531 720.695312 220.800781 722.164062 C 221.136719 722.808594 221.628906 723.507812 222.265625 724.34375 C 230.179688 734.71875 238.617188 744.628906 247.554688 754.027344 C 248.644531 755.167969 249.71875 756.296875 250.824219 757.402344 C 258.621094 765.410156 266.808594 773.054688 275.34375 780.335938 C 276.476562 781.292969 277.59375 782.25 278.738281 783.175781 C 278.9375 783.351562 279.152344 783.527344 279.351562 783.699219 C 286.4375 789.558594 293.710938 795.113281 301.261719 800.273438 C 302.414062 801.066406 303.582031 801.859375 304.769531 802.628906 C 311.742188 807.253906 318.9375 811.535156 326.386719 815.414062 C 327.601562 816.0625 328.824219 816.675781 330.058594 817.285156 C 332.492188 818.507812 334.9375 819.679688 337.425781 820.808594 C 342.054688 822.914062 346.71875 824.835938 351.433594 826.546875 C 352.714844 827.011719 353.976562 827.460938 355.253906 827.890625 C 362.355469 830.300781 369.578125 832.238281 376.902344 833.648438 C 378.222656 833.921875 379.550781 834.164062 380.867188 834.378906 C 388.050781 835.578125 395.339844 836.261719 402.761719 836.382812 C 402.785156 836.382812 402.8125 836.382812 402.839844 836.382812 C 403.355469 836.398438 403.875 836.398438 404.390625 836.398438 C 405.21875 836.398438 406.042969 836.382812 406.875 836.382812 C 414.164062 836.234375 421.679688 835.535156 428.84375 834.363281 C 430.175781 834.148438 431.507812 833.921875 432.8125 833.664062 C 435.503906 833.15625 438.125 832.585938 440.652344 831.957031 C 445.332031 830.785156 449.925781 829.425781 454.457031 827.902344 C 455.734375 827.472656 457.015625 827.03125 458.277344 826.554688 C 465.621094 823.921875 472.746094 820.835938 479.695312 817.339844 C 480.917969 816.734375 482.144531 816.113281 483.367188 815.46875 C 490.734375 811.601562 497.917969 807.296875 504.921875 802.613281 C 505.257812 802.414062 505.578125 802.179688 505.914062 801.964844 C 506.765625 801.402344 507.597656 800.824219 508.445312 800.246094 C 516.257812 794.871094 523.789062 789.179688 531.03125 783.207031 C 532.175781 782.257812 533.304688 781.320312 534.417969 780.363281 C 542.976562 773.121094 551.136719 765.449219 558.949219 757.417969 C 560.035156 756.296875 561.128906 755.167969 562.171875 754.027344 C 570.695312 745.046875 578.765625 735.597656 586.445312 725.746094 C 587.597656 724.25 588.433594 723.132812 588.933594 722.164062 C 589.710938 720.695312 589.710938 719.59375 588.933594 718.125 C 588.433594 717.167969 587.597656 716.039062 586.445312 714.546875 C 578.804688 704.683594 570.722656 695.261719 562.171875 686.265625 C 561.101562 685.132812 560.007812 684.003906 558.90625 682.886719 C 551.777344 675.578125 544.347656 668.566406 536.597656 661.851562 C 535.859375 661.207031 535.125 660.570312 534.367188 659.953125 C 533.253906 658.980469 532.125 658.03125 530.996094 657.097656 C 523.71875 651.042969 516.230469 645.304688 508.472656 640.007812 C 507.300781 639.195312 506.144531 638.417969 504.964844 637.652344 C 497.984375 633.035156 490.789062 628.738281 483.339844 624.863281 C 482.132812 624.21875 480.910156 623.597656 479.667969 622.992188 C 475.757812 621.027344 471.765625 619.179688 467.703125 617.445312 C 464.585938 616.113281 461.4375 614.875 458.277344 613.734375 C 457.015625 613.261719 455.734375 612.816406 454.457031 612.386719 C 447.359375 609.964844 440.140625 608.023438 432.8125 606.609375 C 431.496094 606.339844 430.160156 606.113281 428.84375 605.898438 C 422.566406 604.847656 416.207031 604.199219 409.75 603.976562 C 408.796875 603.949219 407.828125 603.917969 406.875 603.90625 C 406.199219 603.890625 405.527344 603.890625 404.855469 603.890625 C 404.183594 603.890625 403.511719 603.890625 402.839844 603.917969 C 395.40625 604.011719 388.089844 604.699219 380.867188 605.910156 C 379.550781 606.125 378.238281 606.355469 376.917969 606.625 C 369.601562 608.039062 362.398438 609.988281 355.269531 612.425781 C 353.992188 612.84375 352.726562 613.285156 351.449219 613.757812 C 349.609375 614.417969 347.769531 615.132812 345.9375 615.855469 C 340.519531 618.023438 335.222656 620.40625 330.058594 622.992188 C 328.824219 623.613281 327.601562 624.226562 326.386719 624.875 C 318.949219 628.753906 311.757812 633.035156 304.777344 637.675781 C 303.597656 638.429688 302.425781 639.222656 301.269531 640.03125 C 295.316406 644.113281 289.503906 648.445312 283.832031 652.980469 C 282.125 654.339844 280.429688 655.726562 278.765625 657.113281 C 277.621094 658.054688 276.492188 659.007812 275.359375 659.953125 C 266.808594 667.246094 258.621094 674.878906 250.824219 682.886719 C 249.71875 684.003906 248.632812 685.132812 247.566406 686.28125 C 238.617188 695.675781 230.179688 705.582031 222.25 715.960938 C 221.621094 716.796875 221.121094 717.496094 220.800781 718.125 Z M 477.101562 626.210938 C 473.457031 624.40625 469.800781 622.722656 466.128906 621.164062 C 462.90625 619.789062 459.714844 618.539062 456.527344 617.390625 C 455.25 616.917969 453.976562 616.460938 452.699219 616.046875 C 445.71875 613.691406 438.808594 611.863281 431.910156 610.542969 C 430.59375 610.273438 429.261719 610.042969 427.945312 609.828125 C 421.84375 608.816406 415.75 608.226562 409.621094 608.011719 C 408.714844 607.988281 407.785156 607.953125 406.875 607.945312 C 406.199219 607.929688 405.527344 607.929688 404.855469 607.929688 C 404.183594 607.929688 403.511719 607.929688 402.839844 607.953125 C 395.824219 608.050781 388.804688 608.671875 381.773438 609.84375 C 380.453125 610.042969 379.121094 610.285156 377.808594 610.550781 C 370.933594 611.871094 364.023438 613.707031 357.027344 616.089844 C 355.769531 616.503906 354.492188 616.945312 353.210938 617.417969 C 351.304688 618.109375 349.367188 618.832031 347.433594 619.609375 C 342.453125 621.605469 337.523438 623.8125 332.625 626.234375 C 331.402344 626.832031 330.179688 627.445312 328.957031 628.09375 C 321.964844 631.6875 315.027344 635.761719 308.089844 640.316406 C 306.917969 641.082031 305.734375 641.863281 304.5625 642.671875 C 298.503906 646.773438 292.4375 651.257812 286.34375 656.140625 C 285.152344 657.097656 283.953125 658.066406 282.773438 659.050781 C 281.628906 659.980469 280.480469 660.921875 279.351562 661.890625 C 271.058594 668.859375 263.085938 676.226562 255.460938 683.949219 C 254.332031 685.070312 253.242188 686.199219 252.15625 687.332031 C 242.753906 697.074219 233.921875 707.359375 225.664062 718.125 C 225.601562 718.21875 225.515625 718.316406 225.449219 718.410156 C 224.699219 719.402344 224.402344 719.902344 224.28125 720.144531 C 224.402344 720.386719 224.699219 720.898438 225.464844 721.894531 C 225.53125 721.988281 225.601562 722.070312 225.679688 722.164062 C 233.878906 732.890625 242.730469 743.1875 252.15625 752.972656 C 253.253906 754.105469 254.355469 755.234375 255.460938 756.347656 C 263.070312 764.050781 271.042969 771.414062 279.351562 778.410156 C 280.214844 779.136719 281.074219 779.867188 281.9375 780.578125 C 282.203125 780.808594 282.488281 781.035156 282.757812 781.25 C 290.042969 787.253906 297.289062 792.707031 304.554688 797.632812 C 305.734375 798.441406 306.90625 799.222656 308.074219 799.988281 C 315 804.511719 321.921875 808.574219 328.945312 812.199219 C 330.167969 812.84375 331.402344 813.460938 332.625 814.070312 C 334.78125 815.132812 336.929688 816.152344 339.09375 817.132812 C 343.824219 819.289062 348.519531 821.199219 353.183594 822.898438 C 354.460938 823.355469 355.742188 823.800781 357.019531 824.226562 C 363.984375 826.582031 370.90625 828.417969 377.808594 829.738281 C 379.121094 829.988281 380.4375 830.230469 381.773438 830.4375 C 388.789062 831.605469 395.796875 832.238281 402.839844 832.359375 C 403.339844 832.359375 403.863281 832.359375 404.390625 832.359375 C 405.207031 832.359375 406.042969 832.34375 406.875 832.335938 C 413.800781 832.214844 420.980469 831.550781 427.945312 830.421875 C 429.273438 830.222656 430.609375 829.988281 431.910156 829.738281 C 434.558594 829.238281 437.140625 828.667969 439.667969 828.039062 C 444.039062 826.949219 448.382812 825.683594 452.699219 824.242188 C 453.976562 823.8125 455.25 823.378906 456.527344 822.914062 C 463.441406 820.4375 470.300781 817.511719 477.144531 814.121094 C 478.367188 813.515625 479.589844 812.898438 480.816406 812.25 C 487.738281 808.660156 494.664062 804.5625 501.613281 799.972656 C 502.300781 799.53125 502.984375 799.074219 503.671875 798.617188 C 504.15625 798.28125 504.65625 797.953125 505.136719 797.617188 C 512.652344 792.492188 519.953125 787.054688 527.039062 781.28125 C 528.183594 780.351562 529.324219 779.410156 530.46875 778.453125 C 538.699219 771.558594 546.648438 764.226562 554.347656 756.367188 C 555.449219 755.246094 556.542969 754.128906 557.628906 752.984375 C 566.449219 743.769531 574.972656 733.886719 583.253906 723.253906 C 583.460938 723 583.769531 722.605469 584.089844 722.164062 C 584.640625 721.4375 585.246094 720.601562 585.433594 720.144531 C 585.234375 719.6875 584.65625 718.851562 584.105469 718.125 C 583.78125 717.695312 583.46875 717.289062 583.253906 717.023438 C 575.257812 706.683594 566.679688 696.753906 557.578125 687.316406 C 556.484375 686.183594 555.386719 685.054688 554.285156 683.941406 C 547.746094 677.332031 540.96875 670.972656 533.960938 664.890625 C 532.78125 663.871094 531.597656 662.847656 530.417969 661.851562 C 529.273438 660.894531 528.144531 659.953125 527.015625 659.023438 C 519.714844 653.035156 512.449219 647.582031 505.175781 642.644531 C 503.992188 641.847656 502.820312 641.066406 501.640625 640.300781 C 494.71875 635.753906 487.761719 631.6875 480.773438 628.082031 C 479.550781 627.433594 478.324219 626.8125 477.101562 626.210938 " fill-opacity="1" fill-rule="evenodd"></path><g clip-path="url(#a2e545cef5)"><path fill="#e9c261" d="M 134.972656 718.125 L 200.160156 718.125 C 200.039062 719.472656 200.039062 720.816406 200.160156 722.164062 L 134.972656 722.164062 C 133.859375 722.164062 132.957031 721.257812 132.957031 720.144531 C 132.957031 719.03125 133.859375 718.125 134.972656 718.125 " fill-opacity="1" fill-rule="nonzero"></path></g><path fill="#e9c261" d="M 228.015625 677.679688 C 226.972656 678.808594 225.9375 679.953125 224.914062 681.09375 L 177.664062 670.300781 C 176.578125 670.058594 175.886719 668.972656 176.144531 667.894531 C 176.386719 666.804688 177.464844 666.117188 178.550781 666.375 L 228.015625 677.679688 " fill-opacity="1" fill-rule="nonzero"></path><g clip-path="url(#4c25f8d0cb)"><path fill="#e9c261" d="M 406.875 386.675781 L 406.875 583.714844 C 406.199219 583.699219 405.527344 583.699219 404.871094 583.699219 C 404.199219 583.699219 403.511719 583.699219 402.839844 583.726562 L 402.839844 386.675781 C 402.839844 385.5625 403.742188 384.660156 404.855469 384.660156 C 405.976562 384.660156 406.875 385.5625 406.875 386.675781 " fill-opacity="1" fill-rule="nonzero"></path></g><g clip-path="url(#db3eb49e26)"><path fill="#e9c261" d="M 406.875 856.5625 L 406.875 1053.613281 C 406.875 1054.726562 405.976562 1055.632812 404.855469 1055.632812 C 403.742188 1055.632812 402.839844 1054.726562 402.839844 1053.613281 L 402.839844 856.574219 C 403.484375 856.589844 404.390625 856.589844 404.390625 856.589844 C 405.207031 856.589844 406.042969 856.589844 406.875 856.5625 " fill-opacity="1" fill-rule="nonzero"></path></g><path fill="#e9c261" d="M 464.851562 974.183594 C 465.109375 975.261719 464.421875 976.355469 463.335938 976.597656 C 463.1875 976.632812 463.035156 976.648438 462.890625 976.648438 C 461.964844 976.648438 461.140625 976.019531 460.929688 975.070312 L 433.335938 854.085938 C 434.667969 853.871094 435.996094 853.628906 437.304688 853.371094 L 464.851562 974.183594 " fill-opacity="1" fill-rule="nonzero"></path><path fill="#e9c261" d="M 463.335938 463.691406 C 464.421875 463.933594 465.109375 465.027344 464.851562 466.105469 L 437.304688 586.90625 C 435.988281 586.632812 434.667969 586.394531 433.351562 586.167969 L 460.929688 465.21875 C 461.171875 464.125 462.242188 463.441406 463.335938 463.691406 " fill-opacity="1" fill-rule="nonzero"></path><path fill="#e9c261" d="M 504.570312 512.863281 C 505.578125 513.347656 506 514.546875 505.511719 515.554688 L 467.070312 595.453125 C 465.808594 594.96875 464.542969 594.511719 463.28125 594.054688 L 501.882812 513.804688 C 502.363281 512.792969 503.578125 512.378906 504.570312 512.863281 " fill-opacity="1" fill-rule="nonzero"></path><path fill="#e9c261" d="M 505.511719 924.734375 C 506 925.742188 505.578125 926.941406 504.570312 927.425781 C 504.292969 927.5625 503.992188 927.625 503.699219 927.625 C 502.949219 927.625 502.234375 927.210938 501.882812 926.484375 L 463.28125 846.226562 C 464.558594 845.777344 465.820312 845.320312 467.085938 844.847656 L 505.511719 924.734375 " fill-opacity="1" fill-rule="nonzero"></path><path fill="#e9c261" d="M 568.558594 589.449219 C 569.257812 590.324219 569.109375 591.601562 568.25 592.292969 L 524.917969 626.882812 C 523.773438 626.074219 522.617188 625.269531 521.472656 624.457031 L 565.722656 589.144531 C 566.601562 588.4375 567.875 588.589844 568.558594 589.449219 " fill-opacity="1" fill-rule="nonzero"></path><path fill="#e9c261" d="M 538.402344 884.542969 C 539.097656 885.417969 538.953125 886.695312 538.089844 887.382812 C 537.71875 887.675781 537.273438 887.824219 536.832031 887.824219 C 536.238281 887.824219 535.644531 887.574219 535.253906 887.074219 L 492.554688 833.464844 C 493.746094 832.828125 494.960938 832.183594 496.167969 831.523438 L 538.402344 884.542969 " fill-opacity="1" fill-rule="nonzero"></path><path fill="#e9c261" d="M 538.089844 552.90625 C 538.953125 553.59375 539.097656 554.871094 538.402344 555.734375 L 496.128906 608.804688 C 494.933594 608.144531 493.71875 607.496094 492.511719 606.882812 L 535.253906 553.214844 C 535.941406 552.355469 537.21875 552.207031 538.089844 552.90625 " fill-opacity="1" fill-rule="nonzero"></path><path fill="#e9c261" d="M 632.054688 769.988281 C 633.140625 770.230469 633.828125 771.316406 633.570312 772.394531 C 633.355469 773.335938 632.539062 773.96875 631.609375 773.96875 C 631.460938 773.96875 631.3125 773.957031 631.167969 773.914062 L 581.710938 762.621094 C 582.746094 761.492188 583.78125 760.351562 584.816406 759.195312 L 632.054688 769.988281 " fill-opacity="1" fill-rule="nonzero"></path><path fill="#e9c261" d="M 633.570312 667.894531 C 633.828125 668.972656 633.140625 670.058594 632.054688 670.300781 L 584.832031 681.09375 C 583.808594 679.953125 582.773438 678.808594 581.726562 677.667969 L 631.167969 666.375 C 632.253906 666.132812 633.332031 666.804688 633.570312 667.894531 " fill-opacity="1" fill-rule="nonzero"></path><path fill="#e9c261" d="M 599.269531 626.425781 C 599.757812 627.433594 599.335938 628.632812 598.328125 629.117188 L 554.132812 650.421875 C 553.058594 649.429688 551.96875 648.472656 550.863281 647.515625 L 596.582031 625.484375 C 597.578125 624.996094 598.785156 625.414062 599.269531 626.425781 " fill-opacity="1" fill-rule="nonzero"></path><g clip-path="url(#f79a9c61e0)"><path fill="#e9c261" d="M 674.746094 718.125 C 675.859375 718.125 676.761719 719.03125 676.761719 720.144531 C 676.761719 721.257812 675.859375 722.164062 674.746094 722.164062 L 609.59375 722.164062 C 609.746094 720.816406 609.746094 719.472656 609.609375 718.125 L 674.746094 718.125 " fill-opacity="1" fill-rule="nonzero"></path></g><path fill="#e9c261" d="M 568.25 847.996094 C 569.109375 848.6875 569.257812 849.964844 568.558594 850.839844 C 568.171875 851.335938 567.578125 851.59375 566.988281 851.59375 C 566.542969 851.59375 566.101562 851.445312 565.722656 851.148438 L 521.4375 815.789062 C 522.589844 814.996094 523.730469 814.191406 524.875 813.371094 L 568.25 847.996094 " fill-opacity="1" fill-rule="nonzero"></path><path fill="#e9c261" d="M 598.328125 811.171875 C 599.335938 811.65625 599.757812 812.855469 599.269531 813.863281 C 598.921875 814.59375 598.207031 815.011719 597.457031 815.011719 C 597.15625 815.011719 596.863281 814.941406 596.582031 814.804688 L 550.890625 792.785156 C 551.992188 791.835938 553.085938 790.878906 554.171875 789.894531 L 598.328125 811.171875 " fill-opacity="1" fill-rule="nonzero"></path></svg> 